<?xml version="1.0" encoding="utf-8"?>
<!-- Generator: Adobe Illustrator 17.1.0, SVG Export Plug-In . SVG Version: 6.00 Build 0)  -->
<!DOCTYPE svg PUBLIC "-//W3C//DTD SVG 1.1//EN" "http://www.w3.org/Graphics/SVG/1.1/DTD/svg11.dtd">
<svg version="1.1" id="Layer_1" xmlns="http://www.w3.org/2000/svg" xmlns:xlink="http://www.w3.org/1999/xlink" x="0px" y="0px"
	 viewBox="0 0 135.3 35.9" enable-background="new 0 0 135.3 35.9" xml:space="preserve">
<g>
	<path fill="#FFFFFF" d="M130,5.3c3.5,3.5,5.3,7.8,5.3,12.7c0,4.9-1.8,9.2-5.3,12.7c-3.5,3.5-7.8,5.3-12.7,5.3
		c-4.2,0-8-1.4-11.2-4.1c-3.3-2.7-5.3-6.1-6.2-10.2v14.3H94V14.5L82.2,26.4L70.3,14.5v21.1h-6.1V21.4c-0.9,4.1-2.9,7.4-6.1,10.2
		c-3.2,2.7-7,4.1-11.4,4.1c-4.2,0-8-1.4-11.2-4.1c-3.3-2.7-5.3-6.1-6.2-10.2c-0.9,3.3-2.3,6.2-4.2,8.5c-3.5,3.9-7.9,5.8-13.2,5.8H0
		V0h11.9c5.3,0,9.7,2,13.2,6.1c2.3,2.6,3.7,5.4,4.2,8.2c0.9-4,2.9-7.4,6.2-10.2c3.3-2.7,7-4.1,11.2-4.1s8,1.4,11.2,4.1
		c3.3,2.7,5.3,6.1,6.2,10.2V0l17.7,18l18-18v14.3c0.9-4,2.9-7.4,6.2-10.2c3.3-2.7,7-4.1,11.2-4.1C122.2,0,126.4,1.8,130,5.3z
		 M20.5,26.2c2.2-2.3,3.3-5,3.3-8.2s-1.1-5.9-3.3-8.1c-2.2-2.2-4.8-3.5-7.8-3.8H5.8v23.8h6.9C15.7,29.7,18.3,28.4,20.5,26.2z
		 M58.6,18c0-3.3-1.1-6.2-3.4-8.5c-2.3-2.3-5.1-3.4-8.5-3.4c-3.3,0-6.2,1.1-8.5,3.4c-2.3,2.3-3.4,5.1-3.4,8.5c0,3.3,1.1,6.2,3.4,8.5
		c2.3,2.3,5.1,3.4,8.5,3.4c3.3,0,6.2-1.1,8.5-3.4C57.5,24.1,58.6,21.3,58.6,18z M125.9,26.4c2.4-2.3,3.6-5.1,3.6-8.5
		c0-3.3-1.2-6.2-3.6-8.5c-2.4-2.3-5.2-3.4-8.6-3.4c-3.3,0-6.2,1.1-8.5,3.4c-2.3,2.3-3.4,5.1-3.4,8.5c0,3.3,1.2,6.2,3.6,8.5
		c2.4,2.3,5.2,3.4,8.3,3.4C120.6,29.9,123.5,28.7,125.9,26.4z"/>
</g>
</svg>
