<?xml version="1.0" encoding="utf-8"?>
<!-- Generator: Adobe Illustrator 17.1.0, SVG Export Plug-In . SVG Version: 6.00 Build 0)  -->
<!DOCTYPE svg PUBLIC "-//W3C//DTD SVG 1.1//EN" "http://www.w3.org/Graphics/SVG/1.1/DTD/svg11.dtd">
<svg version="1.1" id="svg_1_" xmlns="http://www.w3.org/2000/svg" xmlns:xlink="http://www.w3.org/1999/xlink" x="0px" y="0px"
	 viewBox="0 0 300 300" enable-background="new 0 0 300 300" xml:space="preserve">
<g id="svg_x5F_paths">
	<g id="svgb" display="none">
		<path id="E_1_" display="inline" fill="#C90000" d="M256.2,152c0-53.3-43.2-96.5-96.5-96.5c-45.8,0-84.2,32-94,74.8
			c24.2-27.1,41.1-38,51.2-42.4c-24.5,21.9-42.1,47.2-53.6,66.9c1.5,51.9,44.1,93.6,96.4,93.6c41.9,0,77.6-26.8,90.9-64.2H200
			c-7.5,12.7-21.9,21.2-38.5,21.2c-24.3,0-44-18.4-44-41.1h138C256,160.3,256.2,156.2,256.2,152z M117.3,138
			c0.8-22.1,20-39.8,43.6-39.8c23.6,0,42.8,17.7,43.6,39.8H117.3z"/>
		<path id="Ring_1_" display="inline" fill="#FFFFFF" d="M205.3,42.6c-35.9,7-65.2,24.7-88.3,45.3c-27,24.1-45.7,52.4-56.9,72.7
			C51.4,176.3,47.2,187.3,47,188c-29.5,105.3,71.5,49.8,71.5,49.8l23.9-24.2l-18.9-10.1L107.7,190l6.8,42.7c0,0-35.8,23-52.8,5.5
			c-7.1-7.3-8.1-25.5,9.3-59.3c8-15.5,18.6-13.3,26-8.9l-3.8-8.9l16.4-45.8l45.3-35.8l35.3,7.5l20.4,17.9v15.9l3.2,20.3l25.5-25.8
			C283,30,209.2,41.8,205.3,42.6z M190.8,64c0,0,31.5-17.8,47.5-7c8.3,5.6,15,14.5,3.4,44.3C241.4,102,191,63.4,190.8,64z"/>
	</g>
	<path id="svg" fill="#FFFFFF" d="M256.2,152c0-17-4.4-32.9-12.1-46.8C277,31,209,41.8,205.3,42.6c-14.4,2.8-27.7,7.3-40,13.1
		c-1.8-0.1-3.6-0.2-5.5-0.2c-45.8,0-84.2,32-94,74.8c24.2-27.1,41.1-38,51.2-42.4c-1.6,1.4-3.2,2.9-4.8,4.4c-0.5,0.5-1,1-1.5,1.5
		c-1,1-2.1,2-3.1,3c-0.6,0.6-1.2,1.2-1.8,1.8c-0.9,0.9-1.8,1.8-2.6,2.7c-0.6,0.6-1.2,1.3-1.8,1.9c-0.8,0.9-1.6,1.7-2.4,2.6
		c-0.6,0.7-1.2,1.4-1.8,2c-0.7,0.8-1.5,1.7-2.2,2.5c-0.6,0.7-1.2,1.4-1.8,2.1c-0.7,0.8-1.4,1.6-2.1,2.5c-0.6,0.7-1.2,1.4-1.8,2.2
		c-0.6,0.8-1.3,1.6-1.9,2.3c-0.6,0.8-1.2,1.5-1.8,2.3c-0.6,0.7-1.1,1.4-1.6,2.2c-0.6,0.8-1.2,1.6-1.8,2.4c-0.4,0.6-0.8,1.1-1.3,1.7
		c-3.8,5.2-7.3,10.3-10.4,15.2c0,0,0,0,0,0c-0.8,1.3-1.6,2.6-2.4,3.8c0,0.1-0.1,0.1-0.1,0.2c-0.8,1.3-1.5,2.5-2.3,3.7
		c0,0-0.1,0.1-0.1,0.1c-2,3.3-3.8,6.5-5.5,9.5C51.4,176.3,47.2,187.3,47,188c-27.4,98.1,58.2,56.7,70.1,50.5
		c12.9,6.4,27.3,9.9,42.7,9.9c41.9,0,77.6-26.8,90.9-64.2H200c-7.5,12.7-21.9,21.2-38.5,21.2c-24.3,0-44-18.4-44-41.1h138
		C256,160.3,256.2,156.2,256.2,152z M238.2,57c8.3,5.6,15,14.4,3.5,44.1c-11-17.6-27.5-31.5-47.1-39.1
		C203.6,57.7,225.7,48.6,238.2,57z M61.7,238.3c-6.8-6.9-8-23.8,7-54.6c7.5,21.7,22.6,39.8,42,51.3C101,240.3,75.4,252.3,61.7,238.3
		z M117.3,138c0.8-22.1,20-39.8,43.6-39.8c23.6,0,42.8,17.7,43.6,39.8H117.3z"/>
</g>
</svg>
