<?xml version="1.0" encoding="utf-8"?>
<!-- Generator: Adobe Illustrator 17.1.0, SVG Export Plug-In . SVG Version: 6.00 Build 0)  -->
<!DOCTYPE svg PUBLIC "-//W3C//DTD SVG 1.1//EN" "http://www.w3.org/Graphics/SVG/1.1/DTD/svg11.dtd">
<svg version="1.1" id="Layer_1" xmlns="http://www.w3.org/2000/svg" xmlns:xlink="http://www.w3.org/1999/xlink" x="0px" y="0px"
	 viewBox="9.2 0 221.7 100" enable-background="new 9.2 0 221.7 100" xml:space="preserve">
<polygon fill="#AAC2CC" points="176.4,19.4 151.9,62 122,10.2 91.7,62.8 55.5,0 9.2,80.2 9.2,100 70.2,100 113.2,100 130,100 
	173.8,100 222.9,100 "/>
<path fill="#EBF0F2" d="M134.4,32.9c0.2,0,0.4,0,0.6-0.1l-13-22.6l-14.6,25.4c0.8,0.4,1.6,0.6,2.5,0.6c3,0,5.5-2,6.2-4.9
	c0.6,0.2,1.2,0.2,2,0.2c1.4,0,2.7-0.5,3.9-1.2c1,1.5,2.7,2.5,4.7,2.5c1.5,0,2.9-0.6,3.9-1.6C131.6,32.3,133,32.9,134.4,32.9z"/>
<path fill="#EBF0F2" d="M169.4,35.1c1.7,0,3.2-1.2,3.6-2.7c0.4,0.1,0.7,0.1,1.1,0.1c0.9,0,1.6-0.2,2.2-0.7c0.6,0.9,1.6,1.5,2.7,1.5
	c0.9,0,1.6-0.4,2.2-0.9c0.6,0.6,1.4,0.9,2.2,0.9c0.2,0,0.5,0,0.7-0.1l-7.9-13.7l-8.8,15.2C168.2,35,168.8,35.1,169.4,35.1z"/>
<path fill="#EBF0F2" d="M76.7,36.7L55.5,0L31.6,41.3c0.9,0.3,2,0.4,3,0.4c5.1,0,9.5-3.2,10.6-7.6c1.1,0.2,2.2,0.5,3.4,0.5
	c2.4,0,4.7-0.7,6.6-1.9c1.8,2.4,4.7,4,8,4c2.6,0,5-1,6.6-2.5c1.8,1.5,4.1,2.5,6.6,2.5C76.6,36.7,76.6,36.7,76.7,36.7z"/>
<polygon fill="#BAD1DD" points="215,72.1 191.2,31.3 170.2,67.1 153.9,39.1 124.6,89.5 87.6,26 52.9,85.6 35.3,55.4 25.2,72.6 
	8,43.2 8,100 9.3,100 41.1,100 44.5,100 61.2,100 118.4,100 130.6,100 151.1,100 189.5,100 198.8,100 231.2,100 231.8,100 
	231.8,43.2 "/>
<path fill="#FFFFFF" d="M87.6,26l-19,32.6c0.9,0.4,1.9,0.6,2.8,0.6c3.9,0,7.1-2.6,8.1-6.2c0.8,0.3,1.7,0.4,2.5,0.4
	c1.8,0,3.6-0.6,5-1.5c1.3,1.9,3.6,3.3,6.2,3.3c2,0,3.8-0.8,5-2.1c1.3,1.2,3.1,2.1,5,2.1c0.4,0,0.8-0.1,1.1-0.2L87.6,26z"/>
<path fill="#FFFFFF" d="M142.2,65.1c2.9,0,5.3-2,6-4.6c0.6,0.1,1.3,0.2,1.9,0.2c1.4,0,2.6-0.4,3.8-1.1c1,1.5,2.6,2.5,4.5,2.5
	c1.5,0,2.8-0.6,3.8-1.5c1,1,2.3,1.5,3.8,1.5c0.5,0,0.9-0.1,1.3-0.1l-13.3-22.9l-14.7,25.3C140,64.8,141,65.1,142.2,65.1z"/>
<path fill="#FFFFFF" d="M177.9,60.5c3.3,0,6-2.2,6.8-5.2c0.6,0.2,1.4,0.4,2.1,0.4c1.5,0,3-0.5,4.1-1.4c1.1,1.6,3,2.7,5.2,2.7
	c1.6,0,3.1-0.6,4.3-1.7c1.1,1,2.6,1.7,4.3,1.7c0.5,0,1-0.1,1.5-0.2l-15-25.7l-16.6,28.6C175.6,60.3,176.8,60.5,177.9,60.5z"/>
<path fill="#FFFFFF" d="M8,43.2v19.3c0.9,1.2,2.4,2.1,4.1,2.1c1.4,0,2.6-0.5,3.5-1.4c0.9,0.9,2.1,1.4,3.5,1.4c0.4,0,0.8-0.1,1.3-0.1
	L8,43.2z"/>
<path fill="#FFFFFF" d="M26.6,74.5c2.1,0,3.9-1.5,4.4-3.4c0.4,0.1,0.9,0.2,1.4,0.2c1,0,1.9-0.4,2.8-0.9c0.8,1.1,1.9,1.7,3.4,1.7
	c1.1,0,2-0.4,2.8-1.1c0.8,0.7,1.6,1.1,2.8,1.1c0.4,0,0.6,0,0.9-0.1l-9.7-16.7L24.5,73.8C25.1,74.2,25.9,74.5,26.6,74.5z"/>
<path fill="#FFFFFF" d="M220.8,67.4c2.6,0,4.9-1.9,5.7-4.4c0.5,0.1,1.1,0.2,1.8,0.2c1.3,0,2.5-0.4,3.5-1.1l0.1,0.1V43.2l-13.7,23.5
	C218.8,67.1,219.8,67.4,220.8,67.4z"/>
</svg>
