<?xml version="1.0" encoding="utf-8"?>
<!-- Generator: Adobe Illustrator 17.1.0, SVG Export Plug-In . SVG Version: 6.00 Build 0)  -->
<!DOCTYPE svg PUBLIC "-//W3C//DTD SVG 1.1//EN" "http://www.w3.org/Graphics/SVG/1.1/DTD/svg11.dtd">
<svg version="1.1" id="Layer_1" xmlns="http://www.w3.org/2000/svg" xmlns:xlink="http://www.w3.org/1999/xlink" x="0px" y="0px"
	 viewBox="7.9 65.9 242.4 108.3" enable-background="new 7.9 65.9 242.4 108.3" xml:space="preserve">
<polygon fill="#AAC2CC" points="190.6,87.1 163.8,133.7 131.1,77 97.9,134.6 58.3,65.9 7.7,153.6 7.7,175.3 74.4,175.3 121.4,175.3 
	139.8,175.3 187.7,175.3 241.4,175.3 "/>
<path fill="#EBF0F2" d="M144.6,101.9c0.2,0,0.4,0,0.7-0.1L131.1,77l-16,27.8c0.9,0.4,1.8,0.7,2.7,0.7c3.3,0,6-2.2,6.8-5.4
	c0.7,0.2,1.3,0.2,2.2,0.2c1.5,0,3-0.5,4.3-1.3c1.1,1.6,3,2.7,5.1,2.7c1.6,0,3.2-0.7,4.3-1.8C141.6,101.2,143.1,101.9,144.6,101.9z"
	/>
<path fill="#EBF0F2" d="M183.1,104.1c1.9,0,3.5-1.3,3.9-3c0.4,0.1,0.8,0.1,1.2,0.1c1,0,1.8-0.2,2.4-0.8c0.7,1,1.8,1.6,3,1.6
	c1,0,1.8-0.4,2.4-1c0.7,0.7,1.5,1,2.4,1c0.2,0,0.5,0,0.8-0.1l-8.6-15l-9.6,16.6C181.8,104,182.5,104.1,183.1,104.1z"/>
<path fill="#EBF0F2" d="M81.5,106L58.3,65.9L32.2,111c1,0.3,2.2,0.4,3.3,0.4c5.6,0,10.4-3.5,11.6-8.3c1.2,0.2,2.4,0.5,3.7,0.5
	c2.6,0,5.1-0.8,7.2-2.1c2,2.6,5.1,4.4,8.8,4.4c2.8,0,5.5-1.1,7.2-2.7c2,1.6,4.5,2.7,7.2,2.7C81.4,106,81.4,106,81.5,106z"/>
<polygon fill="#BAD1DD" points="232.8,144.7 206.8,100.1 183.8,139.3 166,108.6 133.9,163.8 93.4,94.3 55.5,159.5 36.2,126.5 
	25.2,145.3 6.4,113.1 6.4,175.3 7.8,175.3 42.6,175.3 46.3,175.3 64.6,175.3 127.1,175.3 140.5,175.3 162.9,175.3 204.9,175.3 
	215.1,175.3 250.5,175.3 251.2,175.3 251.2,113.1 "/>
<path fill="#FFFFFF" d="M93.4,94.3l-21.1,36.3c0.7,0.2,1.4,0.3,2.1,0.3c4.6,0,8.4-2.9,9.6-7c0.9,0.3,2,0.4,3,0.4
	c2.1,0,4.3-0.7,5.9-1.7c1.5,2.1,4.3,3.7,7.3,3.7c2.4,0,4.5-0.9,5.9-2.4c1.5,1.3,3.7,2.4,5.9,2.4c0,0,0,0,0.1,0L93.4,94.3z"/>
<path fill="#FFFFFF" d="M170.9,133.7c1.7,0,3.2-0.7,4.3-1.7c1.1,1.1,2.6,1.7,4.3,1.7c0.4,0,0.7,0,1.1-0.1l-14.6-25l-16.2,27.8
	c0.8,0.3,1.7,0.6,2.9,0.6c3.3,0,6-2.2,6.8-5.1c0.7,0.1,1.5,0.2,2.1,0.2c1.6,0,2.9-0.4,4.3-1.2C167,132.6,168.8,133.7,170.9,133.7z"
	/>
<path fill="#FFFFFF" d="M192.2,132c3.6,0,6.6-2.4,7.4-5.7c0.7,0.2,1.5,0.4,2.3,0.4c1.6,0,3.3-0.5,4.5-1.5c1.2,1.8,3.3,3,5.7,3
	c1.8,0,3.4-0.7,4.7-1.9c1.2,1.1,2.8,1.9,4.7,1.9c0.5,0,1.1-0.1,1.6-0.2l-16.4-28.1l-18.2,31.3C189.7,131.8,191,132,192.2,132z"/>
<path fill="#FFFFFF" d="M6.4,113.1v21.1c1,1.3,2.6,2.3,4.5,2.3c1.5,0,2.8-0.5,3.8-1.5c1,1,2.3,1.5,3.8,1.5c0.4,0,0.9-0.1,1.4-0.1
	L6.4,113.1z"/>
<path fill="#FFFFFF" d="M26.7,147.4c2.3,0,4.3-1.6,4.8-3.7c0.4,0.1,1,0.2,1.5,0.2c1.1,0,2.1-0.4,3.1-1c0.9,1.2,2.1,1.9,3.7,1.9
	c1.2,0,2.2-0.4,3.1-1.2c0.9,0.8,1.8,1.2,3.1,1.2c0.4,0,0.7,0,1-0.1l-10.6-18.3l-11.9,20.2C25.1,147,26,147.4,26.7,147.4z"/>
<path fill="#FFFFFF" d="M239.1,139.6c2.8,0,5.4-2.1,6.2-4.8c0.5,0.1,1.2,0.2,2,0.2c1.4,0,2.7-0.4,3.8-1.2l0.1,0.1v-20.8l-15,25.7
	C237,139.3,238,139.6,239.1,139.6z"/>
</svg>
