<?xml version="1.0" encoding="utf-8"?>
<!-- Generator: Adobe Illustrator 17.1.0, SVG Export Plug-In . SVG Version: 6.00 Build 0)  -->
<!DOCTYPE svg PUBLIC "-//W3C//DTD SVG 1.1//EN" "http://www.w3.org/Graphics/SVG/1.1/DTD/svg11.dtd">
<svg version="1.1" id="Layer_1" xmlns="http://www.w3.org/2000/svg" xmlns:xlink="http://www.w3.org/1999/xlink" x="0px" y="0px"
	 viewBox="9.2 0 221.7 100" enable-background="new 9.2 0 221.7 100" xml:space="preserve">
<polygon fill="#88B4D3" points="69.3,60.8 70.3,59 71.3,60.8 73.2,61.8 71.3,62.8 70.3,64.7 69.3,62.8 67.5,61.8 "/>
<polygon fill="#C1D5E0" points="211.3,36.8 212.3,35 213.3,36.8 215.2,37.8 213.3,38.8 212.3,40.7 211.3,38.8 209.5,37.8 "/>
<polygon fill="#A6BFCC" points="186.2,12.6 187.2,10.8 188.2,12.6 190.1,13.6 188.2,14.7 187.2,16.5 186.2,14.7 184.4,13.6 "/>
<polygon fill="#B2C4CC" points="20.2,66.6 21.2,64.7 22.2,66.6 24.1,67.6 22.2,68.6 21.2,70.4 20.2,68.6 18.4,67.6 "/>
<polygon fill="#B7C5CE" points="47.8,78.8 48.3,77.8 48.8,78.8 49.8,79.3 48.8,79.8 48.3,80.7 47.8,79.8 46.9,79.3 "/>
<polygon fill="#C5D2D8" points="167.8,40.4 168.3,39.5 168.8,40.4 169.7,40.9 168.8,41.5 168.3,42.4 167.8,41.5 166.8,40.9 "/>
<polygon fill="#C5D2D8" points="31.8,17.4 32.3,16.5 32.8,17.4 33.7,17.9 32.8,18.5 32.3,19.4 31.8,18.5 30.8,17.9 "/>
<polygon fill="#C5D2D8" points="201.8,90.4 202.3,89.5 202.8,90.4 203.7,90.9 202.8,91.5 202.3,92.4 201.8,91.5 200.8,90.9 "/>
<polygon fill="#D3E1E5" points="51.7,36.9 52.3,35.8 52.9,36.9 53.9,37.5 52.9,38.1 52.3,39.1 51.7,38.1 50.6,37.5 "/>
<polygon fill="#86B3D1" points="64.7,6.9 65.3,5.8 65.9,6.9 66.9,7.5 65.9,8.1 65.3,9.1 64.7,8.1 63.6,7.5 "/>
<polygon fill="#86B3D1" points="196.7,49.9 197.3,48.8 197.9,49.9 198.9,50.5 197.9,51.1 197.3,52.1 196.7,51.1 195.6,50.5 "/>
<polygon fill="#B6CEDB" points="176.7,74.9 177.3,73.8 177.9,74.9 178.9,75.5 177.9,76.1 177.3,77.1 176.7,76.1 175.6,75.5 "/>
</svg>
